HIERARCHY
ROOT Hips
{
	OFFSET 0.00000 0.00000 0.00000
	CHANNELS 6 Xposition Yposition Zposition Zrotation Yrotation Xrotation 
	JOINT LHipJoint
	{
		OFFSET 0 0 0
		CHANNELS 3 Zrotation Yrotation Xrotation
		JOINT LeftUpLeg
		{
			OFFSET 3.13874 -1.57224 1.49786
			CHANNELS 3 Zrotation Yrotation Xrotation
			JOINT LeftLeg
			{
				OFFSET 2.10955 -5.79594 0.00000
				CHANNELS 3 Zrotation Yrotation Xrotation
				JOINT LeftFoot
				{
					OFFSET 2.41843 -6.64458 0.00000
					CHANNELS 3 Zrotation Yrotation Xrotation
					JOINT LeftToeBase
					{
						OFFSET 0.04713 -0.12948 1.66229
						CHANNELS 3 Zrotation Yrotation Xrotation
						End Site
						{
							OFFSET 0.00000 -0.00000 0.85167
						}
					}
				}
			}
		}
	}
	JOINT RHipJoint
	{
		OFFSET 0 0 0
		CHANNELS 3 Zrotation Yrotation Xrotation
		JOINT RightUpLeg
		{
			OFFSET -3.13988 -1.57224 1.49786
			CHANNELS 3 Zrotation Yrotation Xrotation
			JOINT RightLeg
			{
				OFFSET -2.15006 -5.90725 0.00000
				CHANNELS 3 Zrotation Yrotation Xrotation
				JOINT RightFoot
				{
					OFFSET -2.34496 -6.44273 0.00000
					CHANNELS 3 Zrotation Yrotation Xrotation
					JOINT RightToeBase
					{
						OFFSET -0.08699 -0.23900 1.55223
						CHANNELS 3 Zrotation Yrotation Xrotation
						End Site
						{
							OFFSET -0.00000 -0.00000 0.80281
						}
					}
				}
			}
		}
	}
	JOINT LowerBack
	{
		OFFSET 0 0 0
		CHANNELS 3 Zrotation Yrotation Xrotation
		JOINT Spine
		{
			OFFSET 0.01292 1.96517 -0.16495
			CHANNELS 3 Zrotation Yrotation Xrotation
			JOINT Spine1
			{
				OFFSET 0.02122 1.88666 0.19706
				CHANNELS 3 Zrotation Yrotation Xrotation
				JOINT Neck
				{
					OFFSET 0 0 0
					CHANNELS 3 Zrotation Yrotation Xrotation
					JOINT Neck1
					{
						OFFSET -0.01683 1.81591 0.07903
						CHANNELS 3 Zrotation Yrotation Xrotation
						JOINT Head
						{
							OFFSET 0.00815 1.74013 -0.47700
							CHANNELS 3 Zrotation Yrotation Xrotation
							End Site
							{
								OFFSET -0.00204 1.83225 -0.16933
							}
						}
					}
				}
				JOINT LeftShoulder
				{
					OFFSET 0 0 0
					CHANNELS 3 Zrotation Yrotation Xrotation
					JOINT LeftArm
					{
						OFFSET 3.38482 1.41533 0.19802
						CHANNELS 3 Zrotation Yrotation Xrotation
						JOINT LeftForeArm
						{
							OFFSET 4.32712 -0.00000 0.00000
							CHANNELS 3 Zrotation Yrotation Xrotation
							JOINT LeftHand
							{
								OFFSET 3.28587 -0.00000 -0.00000
								CHANNELS 3 Zrotation Yrotation Xrotation
								JOINT LeftFingerBase
								{
									OFFSET 0 0 0
									CHANNELS 3 Zrotation Yrotation Xrotation
									JOINT LeftHandIndex1
									{
										OFFSET 0.43316 -0.00000 -0.00000
										CHANNELS 3 Zrotation Yrotation Xrotation
										End Site
										{
											OFFSET 0.34922 -0.00000 -0.00000
										}
									}
								}
								JOINT LThumb
								{
									OFFSET 0 0 0
									CHANNELS 3 Zrotation Yrotation Xrotation
									End Site
									{
										OFFSET 0.35456 -0.00000 0.35456
									}
								}
							}
						}
					}
				}
				JOINT RightShoulder
				{
					OFFSET 0 0 0
					CHANNELS 3 Zrotation Yrotation Xrotation
					JOINT RightArm
					{
						OFFSET -3.09725 1.62858 -0.14144
						CHANNELS 3 Zrotation Yrotation Xrotation
						JOINT RightForeArm
						{
							OFFSET -4.29104 -0.00000 0.00000
							CHANNELS 3 Zrotation Yrotation Xrotation
							JOINT RightHand
							{
								OFFSET -3.22720 -0.00000 -0.00000
								CHANNELS 3 Zrotation Yrotation Xrotation
								JOINT RightFingerBase
								{
									OFFSET 0 0 0
									CHANNELS 3 Zrotation Yrotation Xrotation
									JOINT RightHandIndex1
									{
										OFFSET -0.54362 -0.00000 -0.00000
										CHANNELS 3 Zrotation Yrotation Xrotation
										End Site
										{
											OFFSET -0.43828 -0.00000 -0.00000
										}
									}
								}
								JOINT RThumb
								{
									OFFSET 0 0 0
									CHANNELS 3 Zrotation Yrotation Xrotation
									End Site
									{
										OFFSET -0.44497 -0.00000 0.44497
									}
								}
							}
						}
					}
				}
			}
		}
	}
}
MOTION
Frames: 7
Frame Time: .0083333
-35.3735 15.7127 1.0639 0 0 0 0 0 0 -21 0 0 0 0 0 0 0 0 0 0 0 0 0 0 21 0 0 0 0 0 0 0 0 0 0 0 0 0 0 0 0 0 0 0 0 0 0 -16 0 0 21 0 0 11 0 0 0 -8 0 0 0 0 0 0 0 0 0 0 0 0 0 0 0 0 0 0 0 0 8 0 0 0 0 0 0 0 0 0 0 0 0 0 0 0 0 0
-35.3735 15.7127 1.0639 177.4680 71.0960 -173.4820 0.0000 0.0000 0.0000 -42.8442 -32.7510 18.7254 0.1287 -2.3121 -6.3690 2.1270 22.8462 -43.0255 9.9435 -17.3780 -59.2995 0.0000 0.0000 0.0000 12.4620 20.3179 -2.4095 -0.4110 -4.1153 11.4013 -2.9166 -15.5776 -40.5642 -0.1504 2.4988 -6.8864 -4.6272 1.3033 5.8117 0.4090 1.6432 -10.1997 2.6970 1.4860 -14.6723 -3.4786 0.9667 -22.0790 0.7007 6.5101 45.3859 3.1482 2.8063 23.0463 0.0000 0.0000 0.0000 -86.3879 17.3224 1.6876 18.2145 -28.4309 -4.6509 -0.0000 -0.0000 7.5752 21.9322 32.0783 12.0703 -7.1250 0.0000 -0.0000 -12.5234 63.6039 -5.6950 0.0000 0.0000 0.0000 71.3013 -15.0401 48.3139 -20.2703 30.9666 -5.6698 0.0000 -0.0000 -12.3015 -16.6003 -27.3162 7.7901 7.1250 -0.0000 -0.0000 15.2079 -57.6499 -4.7835
-35.3667 15.7127 1.0598 177.5430 71.2184 -173.4480 0.0000 0.0000 0.0000 -42.6503 -32.7143 18.4424 0.1178 -2.2129 -6.0945 1.8904 23.6569 -42.7877 10.1212 -17.4775 -59.8928 0.0000 0.0000 0.0000 12.4989 20.3672 -2.3934 -0.4135 -4.1279 11.4368 -2.5472 -16.5623 -39.5686 -0.3140 3.6023 -9.9605 -4.5786 1.3216 5.8991 0.3888 1.6682 -10.2308 2.6399 1.4935 -14.7655 -3.4734 0.9090 -22.1203 0.7609 6.3814 45.4210 3.1534 2.7651 23.0960 -0.0000 -0.0000 0.0000 -86.3689 17.3879 1.8143 18.1454 -28.3430 -4.6181 -0.0000 -0.0000 7.6228 21.7028 31.9650 11.8984 -7.1250 0.0000 -0.0000 -12.7050 63.4312 -5.7276 -0.0000 -0.0000 0.0000 71.2841 -15.0944 48.2072 -20.2263 30.9140 -5.6471 0.0000 -0.0000 -12.2134 -16.9176 -27.3107 7.9445 7.1250 -0.0000 -0.0000 14.8720 -57.7131 -4.6974
-35.3617 15.7126 1.0506 177.0590 71.3409 -173.9420 0.0000 0.0000 0.0000 -42.6273 -32.7424 18.0462 0.1011 -2.0504 -5.6448 1.5501 24.7251 -42.3960 10.4479 -17.6541 -60.9751 0.0000 0.0000 0.0000 12.2432 20.2012 -2.5159 -0.4211 -4.1652 11.5420 -2.8283 -15.6521 -40.2088 -0.1471 2.4714 -6.8102 -4.6195 1.3412 5.9340 0.2966 1.6748 -10.2199 2.5582 1.4931 -14.7735 -3.6284 0.8496 -22.1168 0.9949 6.2166 45.3953 3.2652 2.7066 23.0493 -0.0000 -0.0000 0.0000 -86.3276 17.3364 1.7555 18.0637 -28.2387 -4.5794 -0.0000 -0.0000 7.9682 21.2867 32.0362 11.6771 -7.1250 0.0000 -0.0000 -13.2436 63.3905 -5.9620 -0.0000 -0.0000 0.0000 71.3768 -15.0189 47.5559 -20.1237 30.7911 -5.5945 0.0000 -0.0000 -11.2756 -18.6779 -26.5732 8.5994 7.1250 -0.0000 -0.0000 12.6037 -57.3665 -3.8586
-35.3565 15.7121 1.0400 176.8540 71.4605 -174.1980 0.0000 0.0000 0.0000 -42.4638 -32.7777 17.5832 0.0825 -1.8522 -5.0974 1.5392 24.7642 -42.3889 10.6983 -17.7842 -61.7978 0.0000 0.0000 0.0000 12.0645 19.8353 -2.7517 -0.4357 -4.2357 11.7408 -2.8930 -15.2312 -40.2084 -0.1042 2.0814 -5.7305 -4.5239 1.3496 6.0445 0.2214 1.6805 -10.2045 2.4178 1.4781 -14.8182 -3.9230 0.7718 -22.1414 1.3980 6.0205 45.4232 3.4953 2.6323 23.0450 0.0000 0.0000 0.0000 -86.3074 17.3295 1.8834 18.0533 -28.2254 -4.5744 -0.0000 -0.0000 7.9166 21.5221 32.2467 11.8825 -7.1250 0.0000 -0.0000 -13.1337 63.6596 -5.9943 0.0000 0.0000 0.0000 71.4864 -14.8922 47.1751 -19.9958 30.6372 -5.5292 0.0000 -0.0000 -11.1347 -19.6081 -27.4414 9.3232 7.1250 -0.0000 -0.0000 12.0898 -58.4348 -4.0101
-35.3487 15.7096 1.0321 176.9350 71.5922 -174.2300 0.0000 0.0000 0.0000 -41.4366 -30.6002 15.9208 0.0771 -1.7910 -4.9284 1.0712 24.2694 -39.7535 10.8621 -17.8670 -62.3331 0.0000 0.0000 0.0000 12.0571 19.5789 -2.9634 -0.4627 -4.3634 12.1013 -2.9313 -14.9797 -40.2098 -0.0963 2.0016 -5.5100 -4.3879 1.3513 6.2112 0.1808 1.6841 -10.2040 2.2921 1.4615 -14.9166 -4.1094 0.7113 -22.1881 1.7000 5.8818 45.5293 3.6758 2.5842 23.1354 0.0000 -0.0000 0.0000 -86.3170 17.3752 1.9771 18.0603 -28.2342 -4.5777 -0.0000 -0.0000 7.6115 22.1781 32.4338 12.3326 -7.1250 0.0000 -0.0000 -12.5103 64.0201 -5.8105 0.0000 -0.0000 0.0000 71.5340 -14.8914 47.4312 -19.9271 30.5544 -5.4942 0.0000 -0.0000 -12.2475 -20.4660 -27.4147 9.7502 7.1250 -0.0000 -0.0000 11.1493 -58.6015 -3.7377
-35.3395 15.7045 1.0249 176.9010 71.7521 -174.3850 0.0000 0.0000 0.0000 -40.7278 -28.7878 14.6606 0.0711 -1.7207 -4.7345 0.7536 23.7425 -37.5978 11.0700 -17.9692 -63.0087 0.0000 0.0000 0.0000 12.0311 19.3875 -3.1945 -0.4993 -4.5300 12.5727 -2.3864 -16.2304 -38.5356 -0.3462 3.7806 -10.4603 -4.2953 1.3708 6.3184 0.1201 1.7047 -10.1589 2.1676 1.4526 -14.9252 -4.2334 0.6622 -22.2931 1.9218 5.7559 45.5821 3.8011 2.5378 23.2110 0.0000 0.0000 0.0000 -86.2471 17.2671 1.8516 17.9999 -28.1570 -4.5492 -0.0000 -0.0000 7.6909 21.6924 32.0676 11.9254 -7.1250 0.0000 -0.0000 -12.7956 63.5292 -5.7984 0.0000 0.0000 0.0000 71.6341 -14.7346 46.8554 -19.7593 30.3513 -5.4092 0.0000 -0.0000 -10.9435 -19.6463 -26.7630 9.1324 7.1250 -0.0000 -0.0000 11.6780 -57.7659 -3.6826
